<?xml version="1.0" standalone="no"?>
<!DOCTYPE svg PUBLIC "-//W3C//DTD SVG 20010904//EN"
 "http://www.w3.org/TR/2001/REC-SVG-20010904/DTD/svg10.dtd">
<svg version="1.0" xmlns="http://www.w3.org/2000/svg"
 width="700.000000pt" height="700.000000pt" viewBox="0 0 700.000000 700.000000"
 preserveAspectRatio="xMidYMid meet">
<metadata>
Created by potrace 1.11, written by Peter Selinger 2001-2013
</metadata>
<g transform="translate(0.000000,700.000000) scale(0.100000,-0.100000)"
fill="#000000" stroke="none">
<path d="M5775 6175 c-14 -5 -129 -39 -455 -135 -495 -147 -702 -207 -730
-215 -8 -2 -213 -63 -455 -135 -242 -72 -462 -137 -490 -144 -27 -8 -257 -75
-510 -150 -253 -76 -467 -139 -475 -140 -8 -2 -184 -53 -390 -114 -727 -214
-897 -260 -1050 -288 -154 -29 -321 -88 -358 -127 -11 -12 -25 -40 -30 -62 -9
-41 -8 -51 7 -165 5 -36 10 -130 10 -210 1 -136 3 -147 26 -182 l25 -38 0
-1578 0 -1579 26 -24 26 -24 2569 0 2570 0 22 23 22 24 0 1598 c0 1499 2 1600
18 1618 14 16 17 40 17 160 0 136 -1 142 -23 156 -20 14 -298 16 -2306 17
-1255 0 -2281 2 -2279 4 2 2 134 41 293 88 277 82 412 122 1465 433 250 74
462 137 470 139 8 2 161 47 340 100 179 53 379 112 445 131 149 44 375 111
435 129 25 8 155 46 290 86 438 128 614 181 632 190 25 14 22 43 -13 140 -18
46 -45 120 -61 164 -17 44 -32 88 -35 98 -5 16 -24 20 -48 12z m-337 -246
c114 -86 204 -172 190 -180 -7 -4 -83 -28 -168 -52 -85 -25 -263 -76 -395
-115 -132 -38 -242 -66 -245 -63 -3 4 -27 25 -55 46 -27 22 -55 45 -61 50 -6
6 -39 33 -73 60 -33 28 -61 53 -61 56 0 3 39 18 88 32 48 14 148 44 222 67 74
23 200 62 280 86 80 25 154 48 165 53 34 14 49 9 113 -40z m-1283 -356 c59
-39 225 -174 225 -182 0 -3 -177 -58 -392 -120 -216 -63 -398 -116 -404 -118
-6 -2 -77 45 -158 105 l-147 110 48 15 c26 9 183 53 348 98 165 45 329 90 365
99 36 10 67 19 70 19 3 1 23 -11 45 -26z m-1132 -440 l139 -107 -54 -18 c-55
-17 -256 -79 -418 -128 -52 -16 -149 -45 -215 -65 -66 -20 -127 -38 -135 -41
-14 -3 -51 25 -233 177 l-58 48 73 21 c40 12 84 25 98 30 14 5 113 34 220 65
107 31 242 72 300 90 58 18 114 33 125 34 11 0 82 -47 158 -106z m120 -766
c-4 -7 -41 -61 -81 -120 l-74 -107 -430 0 c-343 0 -429 3 -421 13 5 6 47 60
92 120 l82 107 420 0 c342 0 419 -2 412 -13z m1317 7 c0 -3 -32 -57 -71 -120
l-71 -114 -435 0 -434 0 47 88 c26 48 56 102 66 120 l20 32 439 0 c241 0 439
-3 439 -6z m1350 1 c0 -3 -34 -57 -77 -120 l-76 -115 -443 0 -443 0 51 83 c28
45 62 99 75 120 l23 37 445 0 c245 0 445 -2 445 -5z m202 -738 c2 -21 1 -42
-2 -47 -4 -6 -299 -11 -761 -12 l-754 -3 0 -515 0 -515 756 -3 757 -2 4 -45
c3 -42 2 -45 -22 -46 -14 0 -413 0 -887 0 -644 -1 -863 -4 -864 -12 -1 -7 -2
-175 -3 -374 l-1 -363 70 0 c39 0 437 0 886 0 l817 0 4 -28 c2 -15 1 -38 -2
-51 l-5 -24 -2468 0 c-1357 0 -2470 3 -2474 7 -4 4 -8 25 -9 46 l-2 40 72 1
c39 0 729 1 1534 1 l1462 0 0 164 0 163 -1526 0 c-840 0 -1529 3 -1533 6 -3 4
-6 26 -6 49 l-1 42 1533 -1 1533 0 0 163 c0 122 -3 162 -12 163 -7 0 -697 1
-1532 2 l-1519 2 -2 48 -1 47 811 0 812 0 0 515 c0 464 -2 515 -16 516 -9 1
-369 2 -801 4 -432 1 -790 3 -795 4 -11 1 -14 70 -3 86 4 7 839 10 2476 10
l2470 0 4 -38z m0 -2409 c2 -22 1 -43 -2 -48 -4 -7 -914 -9 -2480 -8 l-2474 3
-1 40 c-1 22 0 42 1 45 2 4 1116 6 2477 6 l2475 0 4 -38z"/>
<path d="M2800 3060 l0 -516 788 0 787 1 3 516 2 516 -790 0 -790 0 0 -517z"/>
</g>
</svg>
